<svg xmlns="http://www.w3.org/2000/svg" width="512" height="512" viewBox="0 0 512 512">
  <g id="Group_1" data-name="Group 1" transform="translate(-44 -44)">
    <path id="Path_1" data-name="Path 1" d="M378.459,55.788A74.959,74.959,0,0,0,256,19.106,74.959,74.959,0,0,0,133.541,55.788,94.839,94.839,0,0,0,88.607,200a94.839,94.839,0,0,0,44.934,144.212A75.179,75.179,0,0,0,181,395.692V425a35.042,35.042,0,0,0,20,31.616V457a55,55,0,0,0,110,0v-.384A35.042,35.042,0,0,0,331,425V395.693a75.174,75.174,0,0,0,47.459-51.481A94.839,94.839,0,0,0,423.393,200,94.839,94.839,0,0,0,378.459,55.788ZM296,430H216a5.006,5.006,0,0,1-5-5V400h90v25A5.006,5.006,0,0,1,296,430ZM161.248,70.3C164.056,47.864,183.384,30,206,30a44.891,44.891,0,0,1,35,16.776V237.993c-17.459-4.816-30-17.784-30-32.993a15,15,0,1,0-30,0c0,31.39,25.808,57.653,60,63.692V370H206c-22.616,0-41.96-17.963-44.768-40.4A45.072,45.072,0,0,1,174.18,293.18a15,15,0,0,0-21.213-21.213A74.853,74.853,0,0,0,132.421,310.6a64.836,64.836,0,0,1-13.533-100.279,15,15,0,0,0,0-20.646A64.836,64.836,0,0,1,132.43,89.393a75.055,75.055,0,0,0,20.537,38.64,15,15,0,1,0,21.212-21.213A45.134,45.134,0,0,1,161.248,70.3ZM256,482a25.033,25.033,0,0,1-24.814-22h49.627A25.031,25.031,0,0,1,256,482ZM350.752,70.3A45.128,45.128,0,0,1,337.82,106.82a15,15,0,1,0,21.212,21.213,75.069,75.069,0,0,0,20.531-38.644,64.835,64.835,0,0,1,13.549,100.288,15,15,0,0,0,0,20.646,64.837,64.837,0,0,1-13.559,100.3,74.754,74.754,0,0,0-20.52-38.651A15,15,0,0,0,337.82,293.18a45.07,45.07,0,0,1,12.948,36.425C347.96,352.038,328.617,370,306,370H271V162.007c17.459,4.816,30,17.784,30,32.993a15,15,0,0,0,30,0c0-31.39-25.808-57.653-60-63.692V46.776A44.891,44.891,0,0,1,306,30c22.617,0,41.944,17.863,44.752,40.3Z" transform="translate(44 44)" fill="#fff"/>
    <path id="Path_2" data-name="Path 2" d="M454.518,93.321a15,15,0,0,0,20.8,4.16l30-20A15,15,0,1,0,488.678,52.52l-30,20a15,15,0,0,0-4.16,20.8Z" transform="translate(44 44)" fill="#00e99a"/>
    <path id="Path_3" data-name="Path 3" d="M505.319,322.519l-30-20a15,15,0,0,0-16.641,24.961l30,20a15,15,0,1,0,16.641-24.961Z" transform="translate(44 44)" fill="#00e99a"/>
    <path id="Path_4" data-name="Path 4" d="M53.322,72.519l-30-20A15,15,0,1,0,6.681,77.48l30,20A15,15,0,0,0,53.322,72.519Z" transform="translate(44 44)" fill="#00e99a"/>
    <path id="Path_5" data-name="Path 5" d="M36.681,302.519l-30,20A15,15,0,0,0,23.322,347.48l30-20a15,15,0,0,0-16.641-24.961Z" transform="translate(44 44)" fill="#00e99a"/>
    <path id="Path_6" data-name="Path 6" d="M45,215H15a15,15,0,0,1,0-30H45a15,15,0,0,1,0,30Z" transform="translate(44 44)" fill="#00e99a"/>
    <path id="Path_7" data-name="Path 7" d="M497,215H467a15,15,0,0,1,0-30h30a15,15,0,0,1,0,30Z" transform="translate(44 44)" fill="#00e99a"/>
  </g>
</svg>
