<svg xmlns="http://www.w3.org/2000/svg" width="1453.267" height="427.841" viewBox="0 0 1453.267 427.841">
  <g id="Group_3" data-name="Group 3" transform="translate(8179.868 1376.11)">
    <path id="Path_8" data-name="Path 8" d="M16.81,0h9.225V-143.91H16.81ZM145.96,0h9.02V-65.19c0-33.415-20.09-48.38-44.895-48.38-18.45,0-34.44,8.61-41,25.83v-23.575H59.86V0h9.225V-60.065c0-30.955,16.4-45.51,39.565-45.51,22.345,0,37.31,13.94,37.31,41Zm46.125-29.725C192.085-7.79,201.31,0,220.375,0h13.94V-8.2H221.81c-14.965,0-20.5-4.715-20.5-21.525V-103.32h33.005v-8H201.31v-28.29h-9.225v28.29h-16.81v8h16.81Zm114.8-75.235c22.55,0,44.28,14.35,42.845,45.305H262.4C263.425-90.405,284.13-104.96,306.885-104.96Zm51.25,68.47H348.5c-3.69,18.45-19.475,30.135-41.41,30.135-22.96,0-43.87-14.76-44.69-45.715h96.145a89.324,89.324,0,0,0,.41-11.07c0-25.83-18.45-49.61-51.865-49.61-31.57,0-54.12,21.525-54.12,56.99,0,35.67,22.96,57.4,54.12,57.4C335.585,1.64,353.83-14.555,358.135-36.49ZM386.835,0h9.225V-151.7h-9.225Zm43.05,0h9.225V-151.7h-9.225Zm43.05,0h9.225V-111.315h-9.225Zm4.715-136.12a7.59,7.59,0,0,0,7.79-7.995,7.709,7.709,0,0,0-7.79-8,7.709,7.709,0,0,0-7.79,8A7.59,7.59,0,0,0,477.65-136.12Zm32.6,80.36c0,35.055,22.55,57.4,53.71,57.4,24.4,0,41-13.94,47.15-30.75v32.6c0,26.855-18.245,43.05-41.41,43.05s-38.13-11.89-43.46-29.11H517.01c5.535,22.345,24.4,37.1,52.685,37.1,28.085,0,50.635-19.475,50.635-51.045v-114.8H611.1V-82.41c-6.15-16.81-22.755-30.34-47.15-30.34C532.795-112.75,510.245-91.02,510.245-55.76Zm100.86,0c0,30.135-19.885,49.2-45.92,49.2-26.855,0-45.51-18.45-45.51-49.2s18.655-49,45.51-49C591.22-104.755,611.1-85.485,611.1-55.76Zm91.02-49.2c22.55,0,44.28,14.35,42.845,45.305H657.64C658.665-90.405,679.37-104.96,702.125-104.96Zm51.25,68.47H743.74c-3.69,18.45-19.475,30.135-41.41,30.135-22.96,0-43.87-14.76-44.69-45.715h96.145a89.337,89.337,0,0,0,.41-11.07c0-25.83-18.45-49.61-51.865-49.61-31.57,0-54.12,21.525-54.12,56.99,0,35.67,22.96,57.4,54.12,57.4C730.825,1.64,749.07-14.555,753.375-36.49ZM868.175,0h9.02V-65.19c0-33.415-20.09-48.38-44.9-48.38-18.45,0-34.44,8.61-41,25.83v-23.575h-9.225V0H791.3V-60.065c0-30.955,16.4-45.51,39.565-45.51,22.345,0,37.31,13.94,37.31,41ZM914.3-29.725C914.3-7.79,923.525,0,942.59,0h13.94V-8.2H944.025c-14.965,0-20.5-4.715-20.5-21.525V-103.32H956.53v-8H923.525v-28.29H914.3v28.29H897.49v8H914.3ZM144.243,201.664c0-72.54-107.136-37.944-107.136-94.3,0-22.6,18.972-35.154,41.85-34.875,27.063.279,40.176,17.019,42.408,30.69h21.2c-3.348-26.784-25.668-47.43-62.775-47.43-37.665,0-62.5,22.041-62.5,52.173,0,73.377,107.136,37.107,107.136,94.581,0,20.088-15.9,35.991-42.966,35.991-31.527,0-43.524-19.53-45.2-35.712H15.624c1.116,29.853,26.784,52.173,65.844,52.173C122.76,254.953,144.243,228.169,144.243,201.664Zm43.245,10.044c0,30.411,14.229,41.292,40.734,41.292h20.925V236.26H231.291c-17.577,0-23.994-5.859-23.994-24.552V117.127h41.85V100.666H207.3V62.443H187.488v38.223h-21.2v16.461h21.2Zm237.15-34.875c0-48.546-33.2-78.4-76.167-78.4-42.687,0-76.167,29.853-76.167,78.4,0,48.267,32.643,78.4,75.609,78.4S424.638,225.1,424.638,176.833Zm-132.525,0c0-41.85,27.063-61.38,56.079-61.38s56.358,19.53,56.358,61.38-27.9,61.38-56.637,61.38C318.9,238.213,292.113,218.683,292.113,176.833Zm159.309,0c0,48.267,30.969,78.4,73.935,78.4,38.223,0,63.054-21.483,70.029-51.894H574.461c-5.3,22.32-23.436,35.433-49.1,35.433-29.853,0-54.126-20.646-54.126-61.938s24.273-61.659,54.126-61.659c25.668,0,44.082,13.392,49.1,35.154h20.925c-6.975-31.527-31.806-51.894-70.029-51.894C482.391,98.434,451.422,128.566,451.422,176.833ZM631.377,253h19.53V184.645L713.682,253h26.505l-72.819-76.446,72.261-75.888H712.287l-61.38,68.076V46.54h-19.53Z" transform="translate(-7683.131 -1224)" fill="#fff"/>
    <g id="Group_1" data-name="Group 1" transform="translate(-8223.868 -1407.731)">
      <path id="Path_1" data-name="Path 1" d="M320.488,45.269A60.826,60.826,0,0,0,221.118,15.5a60.826,60.826,0,0,0-99.369,29.766A76.957,76.957,0,0,0,85.287,162.29a76.957,76.957,0,0,0,36.462,117.021,61,61,0,0,0,38.511,41.773v23.782a28.435,28.435,0,0,0,16.229,25.655v.312a44.63,44.63,0,0,0,89.26,0v-.312a28.435,28.435,0,0,0,16.229-25.655V321.085a61,61,0,0,0,38.511-41.774A76.957,76.957,0,0,0,356.95,162.29,76.957,76.957,0,0,0,320.488,45.269ZM253.576,348.924H188.66a4.062,4.062,0,0,1-4.057-4.057V324.58h73.031v20.286A4.062,4.062,0,0,1,253.576,348.924ZM144.232,57.044c2.279-18.2,17.962-32.7,36.314-32.7a36.427,36.427,0,0,1,28.4,13.613V193.12c-14.167-3.908-24.344-14.431-24.344-26.772a12.172,12.172,0,1,0-24.343,0c0,25.471,20.942,46.783,48.687,51.683v82.206h-28.4c-18.352,0-34.048-14.576-36.327-32.78A36.574,36.574,0,0,1,154.725,237.9a12.172,12.172,0,0,0-17.213-17.213,60.739,60.739,0,0,0-16.672,31.35,52.611,52.611,0,0,1-10.981-81.371,12.171,12.171,0,0,0,0-16.753,52.611,52.611,0,0,1,10.989-81.376,60.9,60.9,0,0,0,16.665,31.354,12.171,12.171,0,1,0,17.212-17.213,36.624,36.624,0,0,1-10.493-29.635Zm76.887,334.075a20.313,20.313,0,0,1-20.135-17.852h40.27a20.311,20.311,0,0,1-20.135,17.852ZM298,57.043a36.619,36.619,0,0,1-10.494,29.637,12.171,12.171,0,1,0,17.212,17.213,60.914,60.914,0,0,0,16.66-31.358,52.611,52.611,0,0,1,10.994,81.379,12.171,12.171,0,0,0,0,16.753,52.612,52.612,0,0,1-11,81.384,60.659,60.659,0,0,0-16.651-31.363A12.172,12.172,0,1,0,287.511,237.9a36.572,36.572,0,0,1,10.507,29.557c-2.279,18.2-17.974,32.779-36.327,32.779h-28.4V131.461c14.167,3.908,24.344,14.431,24.344,26.772a12.172,12.172,0,0,0,24.344,0c0-25.471-20.942-46.783-48.687-51.683V37.956a36.427,36.427,0,0,1,28.4-13.613c18.353,0,34.035,14.495,36.314,32.7Z" transform="translate(30.613 44)" fill="#fff"/>
      <path id="Path_2" data-name="Path 2" d="M454.043,85.153a12.172,12.172,0,0,0,16.879,3.376L495.265,72.3a12.172,12.172,0,0,0-13.5-20.255L457.418,68.274A12.172,12.172,0,0,0,454.043,85.153Z" transform="translate(-41.224 34.573)" fill="#0dc888"/>
      <path id="Path_3" data-name="Path 3" d="M495.265,318.273l-24.344-16.229a12.172,12.172,0,1,0-13.5,20.255l24.344,16.229a12.172,12.172,0,1,0,13.5-20.255Z" transform="translate(-41.224 -12.564)" fill="#0dc888"/>
      <path id="Path_4" data-name="Path 4" d="M43.268,68.273,18.925,52.044A12.172,12.172,0,1,0,5.421,72.3L29.765,88.527a12.172,12.172,0,1,0,13.5-20.255Z" transform="translate(44 34.573)" fill="#0dc888"/>
      <path id="Path_5" data-name="Path 5" d="M29.765,302.044,5.421,318.273a12.172,12.172,0,0,0,13.5,20.255L43.268,322.3a12.172,12.172,0,1,0-13.5-20.255Z" transform="translate(44 -12.564)" fill="#0dc888"/>
      <path id="Path_6" data-name="Path 6" d="M36.515,209.344H12.172a12.172,12.172,0,0,1,0-24.344H36.515a12.172,12.172,0,0,1,0,24.344Z" transform="translate(44 9.118)" fill="#0dc888"/>
      <path id="Path_7" data-name="Path 7" d="M488.515,209.344H464.172a12.172,12.172,0,0,1,0-24.344h24.344a12.172,12.172,0,0,1,0,24.344Z" transform="translate(-41.224 9.118)" fill="#0dc888"/>
    </g>
  </g>
</svg>
